<?xml version="1.0" encoding="UTF-8" standalone="no"?>
<svg xml:space="preserve" viewBox="0 0 396 792" height="0" width="0" y="0px" x="0px" id="Capa_1" version="1.1">
<g transform="translate(-198)"  id="g69">
	<g id="_x33__22_">
		<g id="g66">
			<path id="path64" d="m 544.5,99 v 495 c 0,82.021 -66.479,148.5 -148.5,148.5 -82.021,0 -148.5,-66.479 -148.5,-148.5 V 148.5 c 0,-54.673 44.327,-99 99,-99 54.673,0 99,44.327 99,99 V 594 c 0,27.349 -22.176,49.5 -49.5,49.5 -27.349,0 -49.5,-22.151 -49.5,-49.5 V 198 H 297 v 396 c 0,54.673 44.327,99 99,99 54.673,0 99,-44.327 99,-99 V 148.5 C 495,66.479 428.521,0 346.5,0 264.479,0 198,66.479 198,148.5 V 618.75 C 210.202,716.389 295.045,792 396,792 496.955,792 581.798,716.389 594,618.75 V 99 Z" />
		</g>
	</g>
</g>
</svg>
